# xmcd CD database file
#
# Track frame offsets:
#	150
#	14252
#	27024
#	37964
#	49043
#	60108
#	72016
#	84927
#	95700
#	104940
#	115615
#	127119
#
# Disc length: 1905 seconds
#
# Revision: 0
# Processed by: cddbd v1.5.1PL2 Copyright (c) Steve Scherf et al.
# Submitted via: CDex 1.50
#
DISCID=92076f0c
DTITLE=Buckner, Milt - Rockin' Hamond
DYEAR=1956
DGENRE=Blues
TTITLE0=Count's Basement
TTITLE1=Mighty Low
TTITLE2=We'll Be Together Again
TTITLE3=Jumpin' At The Woodside
TTITLE4=The Beast
TTITLE5=One O'Clock Jump
TTITLE6=Wild Scene
TTITLE7=Blue And Sentimental
TTITLE8=Deep Purple
TTITLE9=Jumpin' At The Zanzibar
TTITLE10=When You Wish Upon A Star
TTITLE11=The Late, Late Show
EXTD=YEAR: 1956
EXTT0=
EXTT1=
EXTT2=
EXTT3=
EXTT4=
EXTT5=
EXTT6=
EXTT7=
EXTT8=
EXTT9=
EXTT10=
EXTT11=
PLAYORDER=
